# xmcd CD database file generated by Grip 2.91
# 
# Track frame offsets:
#       150
#       12149
#       30117
#       51612
#       67315
#       79233
#       99554
#       111091
#       128700
#       139565
# 
# Disc length: 2104 seconds
# 
# Revision: 3
# Processed by: cddbd v1.4b41PL1 Copyright (c) Steve Scherf et al.
# Submitted via: Grip 2.91
# 
DISCID=8208360a
DTITLE=Keith Harden - What the Blues Are For
DYEAR=1900
DGENRE=
TTITLE0=Clementine
TTITLE1=Long Hard Road
TTITLE2=What the Blues Are For
TTITLE3=The Video Blues
TTITLE4=Silly Little Blues Song
TTITLE5=Got a Good Reason
TTITLE6=Ease My Worried Mind
TTITLE7=Delta Woman
TTITLE8=Tribute to Stevie
TTITLE9=Everybody's Blues
EXTD=
EXTT0=
EXTT1=
EXTT2=
EXTT3=
EXTT4=
EXTT5=
EXTT6=
EXTT7=
EXTT8=
EXTT9=
PLAYORDER=
